<?xml version="1.0" encoding="utf-8"?>

<!DOCTYPE svg PUBLIC "-//W3C//DTD SVG 1.1//EN" "http://www.w3.org/Graphics/SVG/1.1/DTD/svg11.dtd">
<svg version="1.1" id="Layer_1" xmlns="http://www.w3.org/2000/svg" xmlns:xlink="http://www.w3.org/1999/xlink" x="0px" y="0px"
	 viewBox="-1674.457 -550.2368 4195.4863 1654.0663" enable-background="new -1674.457 -550.2368 4195.4863 1654.0663"
	 xml:space="preserve">
<g>
	<path fill="none" d="M1263.605-149.2395l-30.0188,15.0093l44.9116-11.5826c-3.5115-0.455-6.571-0.6251-10.8105-1.6678
		C1266.2524-148.0791,1264.9011-148.6619,1263.605-149.2395z"/>
	
		<rect x="-650.7482" y="378.3091" transform="matrix(0.8944 -0.4472 0.4472 0.8944 -213.9301 -149.603)" fill="none" width="453.8388" height="0"/>
	<path fill="#009B3A" d="M934.3751-300.7918c-4.4495-1.9138-9.2502-3.3474-15.0997-3.3474h-2.4644
		c0,3.5824-3.1094,6.3685-6.6901,6.3685c-6.2864,0-11.381-1.6746-14.6462-7.0087c-3.2656-5.2505-3.6597-12.4153-9.8672-12.4153
		c-3.2656,0-5.0173,0.9572-8.2826,0.9572c-11.7814,0-17.5112-7.6425-29.2927-7.6425c-5.651,0-8.5209,3.0258-14.0109,4.1375
		c-12.4153,2.5479-19.897,3.1882-31.8329,7.644c-8.0444,2.9421-11.865,8.5931-20.4598,8.5931c-4.4607,0-6.925,0.2396-11.3857,0.3232
		l-7.6379-0.9572c-3.0304-0.2396-4.9382-1.5908-7.964-1.5908c-4.7728,0-7.4044,1.9077-12.1771,1.9077
		c-3.1865,0-5.0172-0.5565-8.199-0.3169c0.5564,4.0602,1.1132,7.9595-2.2296,10.1906c-0.9572-1.6744-2.2311-2.865-4.2162-2.865
		h-1.5183c0,1.9915-0.2349,3.2655-0.946,5.0945c-3.7432-2.1522-4.4604-5.2552-7.9657-7.6425
		c-4.694-3.2654-9.5503-1.4348-14.0109-5.0945c-1.7534-1.4348-1.5135-3.7432-3.4987-4.7791
		c-5.4966-2.8633-9.2396-3.2639-15.2913-4.7776c-5.8861-1.4301-10.7407,1.8306-15.2802-2.2249
		c-1.908-1.6744-0.3169-4.6938-2.2249-6.3684c-5.8969-5.1732-17.1943,0.6387-19.1069-7.0039h-10.1906
		c-3.3428-3.3427-4.0554-6.291-7.3207-9.5565c-3.42-3.4199-7.4028-2.7861-11.146-5.7283
		c-3.8157-3.0258-1.1132-9.0726-5.4131-11.4645c-9.1499-5.0897-15.5245-5.4114-25.7875-7.9595
		c-3.0258,1.5957-3.743,4.2998-6.6853,6.0516c-6.8478,4.1389-12.338,3.822-20.381,3.822c-2.8633,0-4.1375-2.0703-6.3622-3.822
		c-2.8712-2.2311-5.4193-2.9486-7.3273-6.0516c-1.1887-1.9077-0.8782-5.0959-3.1865-5.0959c-6.285,0-9.3169,4.1389-15.5972,4.1389
		c-8.8376,0-12.0984-10.2677-12.0984-19.1006c-5.4176,0-8.5159-1.4348-13.3723-3.822c-3.1094-1.5122-6.2123-2.3083-7.0085-5.7299
		H484.814c-3.103,0-4.6106,2.2311-7.7197,2.2311c-2.3082,0-3.0984-1.8354-4.7728-3.5035c-3.743-0.5565-5.4965-1.9142-9.2334-1.9142
		c-1.7534,0-2.7089,0.9572-4.4557,0.9572c-2.709,0-3.8269-2.0687-6.3748-2.865l-3.1819,1.5909
		c-6.6018-0.7947-7.0811-9.8735-13.694-9.8735c-2.6254,0-3.4215,3.1881-6.0468,3.1881c-8.1218,0-12.338-4.1453-20.4534-4.1453
		h-9.0774c-4.2161,0-6.1301-2.5416-10.2676-3.1803c-10.4302-1.6697-16.6379-1.8306-26.7495-4.7791
		c-3.8157-1.1116-4.6167-5.7283-8.5948-5.7283c-3.4987,0-3.9764,3.9812-7.0024,5.7283c-4.9335,2.8696-9.5503,5.4177-9.5503,11.1476
		c-3.5051,0-5.4965,1.274-8.9952,1.274h-8.7604c-2.1476,0-3.259,1.4348-5.1732,2.2295c-5.4902,2.2247-9.3105,1.2739-15.2803,1.2739
		c-3.8268,0-5.7393-1.9126-9.5549-1.9126c-7.1648,0-10.0295,6.3684-17.1943,6.3684c-12.4153,0-18.7837-6.0515-29.6082-12.0983
		c-4.9399-2.7089-7.7262-5.7346-13.3723-5.7346c-4.2209,0-7.3318,0.1608-10.5122,3.1094c-3.4214,0-5.4131,0.0773-8.8345,0.0773
		c-3.2639,0-4.7712-1.7517-7.7262-3.1865c-2.619-0.8735-4.2098-1.5909-6.9976-1.5909c-3.7432,0-5.9728,0.4005-9.5551,1.5909
		c2.2295,3.8203,4.7773,5.8118,4.7773,10.1904c0,3.0258-0.2396,7.0085-3.2655,7.0085h-6.2078c-5.0109,0-7.559-2.8711-12.5824-2.8711
		c-1.4238,0-2.302,0.3232-3.7369,0.0835c0-5.4114,1.3577-9.7947-2.2247-13.7712c-5.0173-5.6526-11.1475-4.2162-17.8329-7.9609
		c-10.8242-6.0515-16.8774-12.4199-29.2973-12.4199c-7.0811,0-12.6548-0.7128-17.8283,4.1436
		c-2.1458,1.9851-0.7946,4.6938-1.2676,7.6425c-0.4778,3.0211-1.2787,4.85-1.2787,7.9547h-3.7385
		c-3.1046,0-5.2568,0.2396-7.7213-1.5909c-3.3475-2.4645-1.7565-6.3636-3.5035-10.1842c-1.9142-4.2224-3.8993-7.1647-8.2764-8.5995
		c-10.908-3.5824-17.434-6.6869-28.9758-6.6869c-6.2123,0-8.199,6.6869-14.4066,6.6869h-8.4434
		c-8.1155,0-12.5713-3.0258-19.5012-7.3256c-3.1818-1.9915-3.5776-6.37-7.3208-6.37c-2.2247,0-2.5464,2.7877-4.4606,3.822
		c-3.6596,1.9915-6.3638,2.548-10.5847,2.548c-6.5246,0-10.2693-0.0789-16.7986-0.0789l-50.9412-17.7494
		c-5.3342,1.274-9.3169,1.4349-14.0062,4.139c-3.1093,1.7517-4.6167,4.4542-8.281,4.4542l-34.548-6.0453
		c-3.6612,0-4.2178,3.9766-7.1647,6.0453c-2.4645,1.7533-4.7727,0.9572-7.7985,0.9572c-3.822,0-5.8906-0.6387-9.7126-1.274
		l-17.5161,8.9164c-20.4518-2.5464-28.2567-15.2786-47.914-21.3317v12.6549c0,4.2998-5.8118,4.5331-10.1069,4.5331h-6.2076
		c-6.2123,0-10.9079,0.3232-15.3685-4.1373c-6.7642-6.7643-7.1584-17.8282-16.6315-17.8282h-9.0789
		c-4.5379,0-7.0023,1.274-11.5417,1.5909c-4.0601,0.3232-7.8033-0.6338-10.1841,2.548c-3.1093,4.2209-5.5738,6.7689-10.5137,8.9164
		c-4.2997,1.8291-5.8071,6.0515-10.5073,6.0515c-8.4324,0-12.7322-4.4606-19.7408-9.2334
		c-6.2076-4.2224-10.5011-5.6509-16.5526-10.1904c-13.7728-18.946-30.4879-23.2458-53.811-26.1091
		c-6.3685-0.7964-9.3169-4.4559-15.6807-4.4559h-6.2913l-6.3684,0.9508h-7.5589c-10.1905,0-16.2373-0.9508-25.8712-4.139
		c-3.5825-1.1952-5.0897-4.1373-8.9164-4.1373c-2.7861,0-4.0554,2.5464-6.8415,2.5464c-9,0-13.295-5.3341-22.1327-7.0085
		c-22.683-4.2935-35.021-6.3623-57.95-10.1843l-31.1989-0.6401c-3.4263-0.5549-5.178-1.2739-8.5996-1.2739
		c-2.786,0-4.2162,1.9141-7.0023,1.9141c-3.8221,0-5.73-2.231-9.5567-2.231c-1.747,0-2.786,0.5566-4.4559,0.957
		c-2.786,0.6338-4.2997,2.3872-6.3684,4.4558l-4.4559-2.231c-14.0062,1.7533-21.3365,7.0085-35.3427,7.0085
		c-4.6167,0-6.8478-2.1522-11.4644-2.8696c-0.317,4.3769-3.2654,8.2826-7.6425,8.2826c-3.0258,0-4.8563-1.3575-7.0038-3.5051
		c-9.0773,9.079-15.9188,12.338-27.0663,18.4684c-12.5761,6.925-19.3403,13.1326-33.7469,15.2849
		c-9.6339,12.8929-14.3278,23.6399-14.3278,39.7985c0,9.317,8.9164,12.9767,8.9164,22.2888c0,8.5995-8.516,10.7469-11.4597,18.7899
		c-1.7313,4.627-0.8556,6.8708-0.8301,11.7389L153.2591,89.7662L934.3751-300.7918z"/>
	<path fill="#009B3A" d="M-500.7024,732.9161c0.8593,0.3966,1.8222,0.6304,2.9308,0.6304h2.4708
		c0.1546-1.5847,0-3.8157,1.5894-3.8157c4.5347,0,3.7448,6.6081,7.644,8.9102c3.1818,1.9141,6.6854,0.8845,8.9102,3.8267
		c1.4349,1.9141-1.1117,4.4559,0.3232,6.3638c1.829,2.392,5.3278,1.0343,7.0023,3.505c4.9399,7.2419,12.4988,5.8954,20.6979,8.9164
		c4.7727,1.7469,9.8672,3.5035,9.8672,8.5995c0,2.7026-2.5464,3.6596-2.5464,6.3636c0,1.2787,0.801,1.829,0.801,3.1094v10.2678
		c5.7282-3.8221,9.4714-4.3785,15.7579-6.6916c8.7556-3.2545,13.6893-6.3636,22.9999-6.3636h17.6721
		c12.0195,0,17.3552-9.2334,29.3746-9.2334c8.3551,0,13.377,3.8157,21.0148,7.0087h6.2849c10.0296,0,15.5309,3.8157,25.5541,3.8157
		c9.1562,0,14.8072-0.6339,23.2458-4.1389c6.6018-2.7088,9.4714-7.9595,16.6362-7.9595c6.5246,0,10.1858,0.3168,16.715,0.3168
		c3.5051,0,5.4902,1.2693,8.9954,1.2693c6.2076,0,9.7111-0.946,15.9251-0.946c8.9937,0,14.4839,0.4667,22.9225,3.4987
		c3.3364,1.1905,4.6893,4.1437,8.2764,4.1437c7.7213,0,11.5417-3.6659,18.7837-6.3747c15.2029-5.6511,24.676-7.6424,40.8392-7.6424
		h6.8415c18.306,0,30.01,3.6596,44.6548,14.6511c7.0038,5.2504,10.7471,9.0724,18.1514,14.0062
		c4.2997,4.2999,8.4371,4.3771,13.6877,7.3256c11.3872,6.3636,17.0382,14.6462,30.0937,14.6462
		c8.043,0,12.1818-3.6659,19.5784-6.687c16.7213-6.9297,24.9141-14.0881,42.6697-18.4669
		c25.7088-6.3636,39.0811-16.2421,65.3527-16.2421h9.0724c1.5121,0,2.3857-0.3941,3.8993-0.634
		c11.4581-0.2396,17.8328-0.634,29.291-0.634c17.516,0,28.9742,2.8588,42.9867,13.3723c4.4606,3.3428,8.0367,3.2591,12.7369,6.3622
		c3.1818,6.4536,7.4817,7.882,12.7386,12.4214c20.936,18.3059,41.55,12.4988,66.2261,24.8353
		c6.2849,3.1046,9.5503,5.4903,15.6018,9.2349c6.8416,4.2209,10.3405,6.9249,17.5098,10.5059
		c10.2695,5.0959,12.8994,12.5776,21.0148,20.693c7.7213,7.7261,12.0211,12.9766,18.4683,21.6534
		c1.1116,4.5395,4.6167,5.3356,7.0087,9.2349c4.3708,7.0087,6.4409,11.0624,11.775,17.1975
		c3.8993,4.5347,5.3341,7.8774,9.2335,12.4152c5.413,6.2078,10.4301,7.3979,17.5159,11.7767
		c12.2546,7.6472,18.1453,13.06,30.8821,19.7455c10.8242,5.7362,15.124,11.6206,24.8368,19.1071
		c7.9595,6.124,12.7321,9.2334,19.7408,16.2373c8.9937,8.9938,13.9272,13.9336,22.9225,22.9274
		c6.1288,6.124,10.5846,9.0724,14.6449,17.1943c5.0959,5.0945,8.9165,7.0811,14.9633,10.8242
		c12.4987,7.7985,19.424,12.9717,33.7533,16.5526c20.5354,5.1008,30.4043,16.2435,51.4238,16.2435
		c16.0748,0,25.871-2.3147,39.9545-10.1904c11.865-6.6033,18.8672-10.6698,27.7065-21.0146
		c3.1818-3.7432,9.5502-3.3428,9.5502-8.2778v-5.0173c0-6.6018,3.1882-10.1115,3.1882-16.715v-7.5637
		c-4.2227-4.6956-9.8799-2.8649-14.9745-6.687c-4.3785-3.2655-4.9291-7.4027-9.2286-10.8242
		c-1.5121-2.6254-3.1865-4.0602-3.1865-7.0859c0-1.9868,0.3215-3.1046,0.3215-5.0959c0-3.0983-0.4005-4.8549-1.2739-7.8758
		c-0.7174-2.5527-0.8718-5.7345-3.5034-5.7345c-2.4644,0-3.0256,2.5482-5.0945,3.8268c-4.3787,2.7815-7.4045,4.1389-12.5715,4.1389
		c-3.2654,0-4.9397-1.9141-8.199-1.9141h-6.5309c-3.9828,0-5.4904,3.4214-9.3169,4.4606
		c-6.3636,1.7469-10.2629,2.2247-16.8712,2.2247c-1.4349,0.3231-2.3083,0.6354-3.8203,0.6354c-3.0258,0-5.6511,0.5613-7.6425-1.591
		c-3.1046-3.338-1.6698-7.4817-4.7792-10.8242c-4.7728-5.0959-10.5073-3.822-17.5049-3.822c-4.3044,0-6.6917,1.2739-10.99,1.2739
		c-10.6636,0-16.7151-0.5613-27.2177-2.231c-8.5995-1.3511-16.559-6.5246-16.559-15.2802c0-6.285,5.8071-8.6767,11.4583-11.463
		c5.9744-2.9422,8.6766-6.1302,13.3771-10.8242c5.0959-5.0959,5.4066-11.9422,12.4152-13.6891
		c5.5691-1.3577,8.9166-1.5973,14.6462-1.5973c6.4475,0,11.3037-0.1607,15.9204,4.4557v8.3598
		c0,4.7791,0.9509,8.7556,5.0881,11.0704c2.5543,1.4238,4.7839-0.0835,7.644,0.6339c5.572,1.3512,7.2466,5.5738,11.7861,8.9101
		c0.2396-3.8158,0-5.9679,0-9.7836c0-9.7964,6.6853-14.0946,12.7385-21.7384c1.9851-2.5464,6.0454-2.7026,6.0454-6.0516
		c0-4.7728-4.9336-5.9633-9.2383-7.9547c-6.124-2.8633-10.8196-6.9249-10.8196-13.7712v-7.4879
		c0-6.124-0.4006-11.8522,4.7728-15.0405c3.9828-2.4692,7.0858-2.5482,11.786-2.5482c9.0679,0,13.9292,2.7089,22.6011,5.4131
		c5.2504,1.5956,7.2466,6.0516,12.7368,6.0516c2.231,0,1.5135-3.1818,1.9141-5.4114c0.7175-3.9827,1.5911-5.8906,2.2249-9.8736
		c-15.0469-1.0343-22.2051-7.3979-37.252-9.8671v-1.2739c-1.9127-2.5482-2.5464-4.7002-2.5464-7.9609
		c0-16.4028,10.4286-23.5612,15.2802-39.1647c5.0172-16.1584,5.0945-26.587,13.3708-41.3895
		c3.1094-5.6573,6.1351-8.043,9.2396-13.694c1.9851-3.6612,1.8307-6.925,4.7775-9.8688c5.0126-5.0219,12.4941-2.3904,15.9139-8.598
		c1.5183-2.7878,3.8992-3.3442,6.3701-5.4193c4.2209-3.5807,3.4263-9.071,8.2764-11.7751c6.2123-3.42,11.0686-2.548,18.2272-2.548
		c3.6659,0,5.8134-0.1608,9.473-0.1608c1.9142,0,2.7878,1.5137,4.1438,2.7088c1.4897-2.5074,3.196-4.3715,5.0991-5.8593
		L153.2591,405.9361L-500.7024,732.9161z"/>
	<path fill="#009B3A" d="M862.0438,767.6166c-3.8993,5.8954-3.6597,10.5122-4.7775,17.5161
		c-1.036,6.769-2.865,10.5894-2.865,17.4371c0,1.0297,0.2382,1.5911,0.3169,2.6254c21.8094-5.4114,30.4091-21.9703,52.6914-21.9703
		c0.1564,0,0.3046,0.0118,0.4581,0.0157l-39.8142-19.9071C865.9202,764.467,863.6153,765.2055,862.0438,767.6166z"/>
	<path fill="#009B3A" d="M922.2231,792.452c2.2247,3.349,5.4066,3.8268,7.3207,7.3318c2.2249,3.9765,1.4349,10.1842,6.0516,10.1842
		c3.42,0,4.0537-3.6596,7.0024-5.4114c1.2245-0.7294,2.3768-1.4689,3.4882-2.207l-26.4163-13.2081
		C920.5526,790.1469,921.3981,791.2518,922.2231,792.452z"/>
	<path fill="#009B3A" d="M824.1546,756.7951c0,4.6167,4.2162,5.8906,7.3208,9.2334c2.6299,2.865,3.3473,7.0038,7.3192,7.0038
		c3.7432,0,5.1798-3.8157,8.9229-3.8157c-0.4371-5.6562-0.028-11.4298-0.7637-16.4331l-17.9996-8.9998
		c0.1027,1.0432,0.6135,1.6798,0.6135,2.821C829.5677,751.0606,824.1546,752.3409,824.1546,756.7951z"/>
	<path fill="#009B3A" d="M798.0472,734.1896c5.8119,2.1522,10.1904,0.7174,15.6018,3.8156
		c0.0798-0.6012,0.2283-1.1491,0.4155-1.6664l-25.1121-12.556c-0.8254,0.3489-1.5316,0.8997-2.0527,1.8072h-0.0002
		C791.8394,728.0592,792.9512,732.277,798.0472,734.1896z"/>
	<path d="M469.4262,247.8498l698.5345,349.2666c2.9795-5.511,9.1899-8.9686,15.6672-12.5814
		c12.5762-7.0023,20.1414-9.7837,33.1133-16.242l-2.5483-0.6338h-6.6079c-6.0518,0-8.9939,3.1866-14.0898,6.3747
		c-5.5675,3.42-9.1499,4.8563-14.9568,7.9547l-3.8269-0.9571c1.9127-5.8906,1.9915-10.6635,7.0087-14.3231
		c2.865-2.075,6.6808-2.7924,6.6808-6.37v-3.7431c0-6.1288,3.8269-9.2335,3.8269-15.3621c0-4.0617-1.5974-6.1256-2.2311-10.1905
		c1.9913,0.4777,3.0211,1.5909,5.0961,1.5909c5.6509,0,7.5635-5.4067,10.5073-10.1858c2.7024-4.3771,6.9248-4.9336,9.2334-9.5551
		c4.6956-9.5818-1.4758-19.8969,4.7727-4.4559c2.6255-0.6402,4.3-0.957,7.0024-0.957c5.7346,0,14.0173-0.9508,14.0173,4.7776
		c0,4.3787-6.4519,3.4988-8.5994,7.3255c-4.3772,7.8821-4.7776,13.7681-4.7776,22.8454v2.0687
		c1.6746,0.1561,2.709-0.0836,4.3835-0.0836c6.7578,0,10.7407,4.4622,13.7664,10.5073c1.6682-2.3021,3.1028-3.4988,4.4604-6.0452
		c-5.4949-3.1882-7.6489-6.687-12.103-11.1476c-2.0701-2.0687-4.7727-3.0983-4.7727-6.0468c0-3.0305,3.3379-4.4543,6.3635-4.4543
		c5.0173,0,4.9385,6.0452,8.2813,9.8672c5.5737,6.3685,10.7424,9.5503,19.1023,9.5503c-1.1968,2.8649-2.2249,4.5395-2.2249,7.6425
		c0,3.5824,5.3342,2.7088,7.0024,6.0515c3.5825-1.7564,5.0959-3.8205,8.9119-5.0944c1.1951,4.8564,5.0173,6.1304,7.9656,10.1905
		c3.0259,4.2209,4.2935,9.5566,9.5503,9.5566c1.9915,0,2.146-3.1929,4.1375-3.1929c3.1819,0,4.5396,2.5464,7.7214,2.5464h8.7603
		c2.5483,0,3.8994,0.6464,6.4475,0.6464c3.7432,0,5.8071-1.2803,9.5503-1.2803c1.2739,0,1.908,0.6339,3.1819,0.6339
		c1.5134,0,2.3081-0.6339,3.8218-0.6339c1.5122,0,2.3083,0.6339,3.8206,0.6339c3.5823,0,4.1389-4.2099,7.6423-5.0944
		c7.7986-1.9079,12.4153-1.5909,20.3762-1.5909c1.8289,0,2.6299,1.2787,4.4604,1.2787c3.2656,0,4.8564-2.2296,8.1204-2.2296
		c10.7422,0,16.4768,0.7111,27.2175,0.9509c6.6853,2.786,9.4729,6.8525,15.2849,11.1475c2.1475,1.5909,4.0603,1.4285,6.3687,2.8634
		c5.6526,3.5051,4.7727,9.4731,7.3206,15.597c1.2788,3.1929,3.8269,4.7838,3.8269,8.2826c0,1.7518-2.3921,1.6699-3.8269,2.5528
		c-1.9851,1.1967-2.9421,2.6205-5.0896,3.4988c-8.1204,3.3442-13.4558,4.1389-22.2935,4.1389
		c-9.9509,0-14.8796-6.0515-24.8369-6.0515c-8.1929,0-12.4924,4.1389-20.6914,4.1389c-5.4966,0-6.9204-6.6807-12.4216-6.6807
		c-5.1667,0-6.2913,6.6807-11.458,6.6807c-3.5037,0-3.8994-4.0617-6.6853-6.0468l-1.2739,0.3217c0,0.5519-0.3169,0.79-0.3169,1.3466
		c0,3.5099,2.865,4.9399,5.4065,7.2483c-1.7468,1.7471-3.259,2.548-4.1389,4.7775c-1.0342,2.5417-0.7112,6.3701-3.4985,6.3701
		c-11.1477,0-14.9634-11.7877-26.1094-11.7877c-5.8906,0-4.6118,10.8306-10.5073,10.8306c-4.3784,0-6.6033-2.4708-10.8242-3.5051
		c-16.1582-3.9828-24.9929-8.9164-41.5518-8.9164c-9.8101,0-18.5977,2.9077-24.3374,9.4395l9.554,4.777
		c4.2073-3.849,9.0105-6.2556,15.5796-6.2556l23.2395,3.5035h11.3857c4.3772,0,5.9746,3.7432,10.2678,4.4606
		c10.8242,1.7471,17.032,1.6635,27.7017,4.7728c10.2678,2.9422,15.2014,8.9117,25.7925,8.9117
		c5.3293,0,6.7642-4.7728,10.8196-8.2779c12.103-10.5847,18.7886-21.6487,34.7134-21.6487c8.1155,0,12.2546,4.7727,20.3762,4.7727
		c5.0945,0,7.7151-2.2247,12.8159-2.2247h6.2078c9.0771,0,13.6938-4.2162,22.0493-7.6377c4.7773-1.9962,7.9595-1.602,13.0537-2.5528
		c6.5259-1.274,9.946-3.4988,16.5603-3.4988c6.7625,0,7.7986,8.0383,13.6892,11.4581c1.9851,2.7878,4.771,3.4988,8.2764,3.4988
		c2.2246,0,3.3491-1.2677,5.0945-2.5417c1.0344,6.2912,5.4902,11.1412,11.7813,11.1412c7.7214,0,10.7471-7.3193,18.4668-7.3193
		c4.8564,0,7.2434,2.8586,11.46,5.0944c5.2551,2.7861,10.8289,5.2505,10.8289,11.3037c2.9485,0.238,4.6167-0.1624,7.5652-0.1624
		c5.8845,0,7.3208,6.2139,9.9509,11.4644c2.8586,5.7299,11.1414,4.0601,13.0493,10.1841c2.075,6.7704,2.5479,12.9781,8.9165,15.9251
		c4.7729,2.2311,9.4731,0.9524,12.7319,5.0897c10.6699,13.3787,18.0728,20.1476,25.1602,35.6658
		c2.6255,5.8907,0.3169,10.7423,3.1804,16.5543c1.0359,2.075,3.5051,2.4692,3.5051,4.7838c0,1.9851-2.8696,2.1412-2.8696,4.1389
		c0,1.6682,0.8779,3.4988,2.5527,3.4988c1.8242,0,2.5415-1.4365,4.1387-2.2311c4.6167,7.0087,9.1545,9.6339,16.2356,14.011
		c5.4905,3.4279,8.7556,7.0087,15.2803,7.0087c1.9961,0,3.1094-0.1607,5.0945-0.1607c1.1968,0,0.6401-2.0751,1.5911-2.7089
		c2.9548-2.0686,5.3342-2.5481,8.9165-2.5481c4.8564,0,7.2483,3.1818,12.1047,3.1818c4.1375,0,5.4902-4.1373,9.5439-4.7727
		c6.5308-1.0343,12.3442,0.4794,16.2437-4.7776c1.9126,3.3491,7.9595,2.1522,7.9595,6.0516c0,0.5565-0.5566,0.7963-0.634,1.2739
		v2.8649c2.9421-0.7174,4.6167,0.3169,7.5588,0.3169c4.8281,0,2.9849,0.957,7.0859,0.957c1.7534,0,2.7041-0.6339,4.4558-0.6339
		c8.4387,0,13.4558,5.4903,17.1926,13.0492c1.3528,2.7088,0.3232,5.0945,1.9141,7.6424c3.2656,5.0173,7.165,6.1351,12.4153,8.9165
		c6.2913,3.3428,10.0295,6.6854,17.1926,6.6854c9.3169,0,14.8906-3.42,22.2891-8.9166c2.6931-1.9993-19.5754,4.4557-22.9229,4.4557
		c-5.2502,0-8.0366-2.1413-12.7368-4.4557c-3.5823-1.7455-6.687-2.0686-8.9165-5.4066
		c-12.4973-18.8973-26.7966-37.3262,6.3684-21.6535c4.1375,1.9079,5.4177,4.9336,9.5566,7.0024
		c7.3191,3.6596,12.6533,2.8712,20.6917,4.4606c4.6167,0.8735,7.0857,2.8649,11.7859,2.8649c9.5457,0,14.4856-4.3771,23.2349-7.9595
		c-2.9421,11.7813-11.458,15.9204-22.2839,20.381c-1.6636,0.8199-1.1416,0.9508,0.5564,0.9508
		c10.7471,0,14.7239-8.7556,21.7275-16.8758c3.9829-4.623,7.7263-5.651,13.3772-7.9595c2.7861,0.394,4.2998,0.9554,7.0811,0.9554
		c5.6572,0,8.8391,0.3168,14.4902,0.3168c5.4951,0,8.4373-1.2725,13.7729-2.8633c19.8953-5.9695,30.9595-10.5073,51.4175-10.5073
		c6.1353,0,8.6785,5.4114,14.8074,5.4114c4.7002,0,6.2864-4.0601,10.8306-5.0944c22.1265-5.2568,33.1858-15.6035,55.7961-15.6035
		c3.6597,0,5.8135-0.3942,9.4731-0.6338c3.4199,3.4216,6.9248,2.8586,11.1458,5.0959c5.886,3.0983,9.0725,5.0109,14.9585,7.9531
		c9.4006,4.7003,12.7371,11.7878,22.9275,14.3342c9.4731,2.3082,15.0405,2.3082,24.8369,3.5052
		c4.7002,0.5502,8.9937-0.8798,11.7813,2.8587c3.1865,4.3061,1.908,11.7813,7.3257,11.7813c4.6938,0,7.2417-0.8736,11.9355-1.5911
		v-3.7431c0-6.0468,2.3921-9.15,3.6614-15.0406c2.313-10.6697,3.5034-17.8329,11.1462-25.4769
		c3.9058-3.8977,7.3979-4.6167,11.7813-7.9531c6.2847-4.8627,9.3123-10.5137,17.1926-10.5137c2.2312,0,2.865,2.075,4.4558,3.5051
		c2.1523,1.9914,4.4604,3.103,4.4604,6.0515c0,3.0984-3.3477,3.6597-4.7715,6.3638c-5.3357,9.8735-9.7964,15.6854-10.5137,26.9055
		h17.7493c1.8303,0,2.865-0.4792,4.7002-0.4792c3.1821,0,4.9336,0.6402,8.1157,0.6402c7.0811,0,7.7986-7.9594,13.0603-12.7385
		l2.543,0.6403h7.0022c6.7688-10.1905,14.4065-16.559,26.5886-16.559c4.5396,0,7.4814,0.0836,11.6255,1.9126
		c5.334,2.3083,6.2847,8.9117,12.092,8.9117c5.897,0,6.291-6.8415,11.1477-10.1841c8.3599-5.8134,14.167-6.2912,23.2458-10.8306
		c3.8206-0.9571,6.2896-1.274,10.2678-1.274h6.291c21.0923-10.5011,28.6511-28.6572,51.9741-28.6572h7.8047
		c9.9446,0,16.4753,3.9828,22.6831,11.7814l1.2742-0.6339c1.6746-6.925,1.6746-12.1772,7.0022-16.8712
		c5.1792-4.5441,15.2866-1.9977,15.2866-8.9228c0-2.3856-2.3921-2.9422-4.1392-4.4496c-2.8696-2.4755-4.4604-3.9829-7.6426-6.0515
		c-7.0859-4.7003-10.908-8.2054-15.9204-14.968c-8.1206-10.8243-16.0798-16.0811-29.2959-18.79
		c-11.5369-2.3809-19.741,0.645-29.9268-5.7299c-7.9653-4.9335-11.7813-9.3894-15.6082-17.8266
		c-2.4646-5.4902-5.5671-8.2779-6.0403-14.3294l8.5935-31.21c-0.5549-7.4769-6.2847-10.0233-10.5076-16.2373
		c-5.2554-7.715-7.2417-12.6548-14.0112-19.4175c-4.6938-4.6955-6.3635-7.7985-11.7813-11.4644
		c-3.103-2.0687-5.6509-2.8649-7.6426-6.0468c-2.7813-4.5442-1.4299-8.2764-2.8647-13.3723
		c-4.377-15.1241-23.4006-17.2764-23.4006-33.0405v-7.4864c0-1.6635,0.4778-2.7026,0.4778-4.3771
		c0-1.9867-2.146-2.8602-4.1372-2.8602c-1.2739,0-1.9141,0.9524-3.1882,0.9524c-2.7024,0-2.6252-3.338-3.8206-5.7299
		c-1.113-2.3083-3.4985-3.103-3.4985-5.7299c0-9.5551,10.824-12.4152,10.824-21.9703c0-11.1476-11.9419-13.295-16.8774-23.2458
		c-5.0898-10.2678-2.302-19.0234-9.8672-27.7001c-10.6682-12.2591-14.6509-20.6144-23.2444-34.3871
		c-4.7791-7.6425-10.4302-9.7111-14.9634-17.5161c-7.7258-5.7282-10.4302-10.4285-15.2866-18.7837
		c-2.3906-4.2162-5.4114-6.4472-5.4114-11.3809v-7.726l1.2742-5.413v-3.5035c-9.9509,0-15.6809-5.7299-21.6553-13.6829
		c-3.5762-4.7791-8.2764-7.0087-8.2764-12.9781v-7.7198l2.5479-20.064l-15.9204,1.5909h-7.876
		c-5.334,0-6.0532-6.1304-10.5908-8.9164c-12.5762-7.7985-16.0811-17.1107-29.6096-23.8734
		c-13.7712-6.8478-22.1265-9.3169-37.2505-11.1475c-3.5098-0.4005-3.8269-5.0944-7.3318-5.0944
		c-7.6423,0-11.7815,3.1802-19.4175,3.1802c-3.8994,0-2.1477-7.9531-6.0518-7.9531c-8.1992,0-11.8601,6.6806-20.0593,6.6806
		c-5.0945,0-1.8289-8.1155-4.4604-12.4152c-1.8245-3.0274-5.4065-1.5137-8.9102-2.2311
		c-8.9165-1.9079-14.0125-3.4988-22.2888-7.6425c-2.709,6.5293-3.1045,14.968-10.1904,14.968
		c-20.3748,0-34.3037-7.6425-46.4902-23.8845c-3.9719-8.0383-7.7151-11.5417-12.4153-19.1022
		c-3.259-5.2505-3.259-9.6339-7.6379-14.0109c-2.8696-2.865-6.4473-1.5909-10.5845-1.5909h-11.6206
		c-2.6299,0-4.1375-0.957-6.769-0.957c-10.4302,0-16.3208,2.9484-26.7495,2.548c-12.3315-0.4777-12.1755,20.064-24.5134,20.064
		c-3.5051,0-5.2505-1.7533-8.2764-3.5051c-7.644-5.7299-14.9695-10.1905-15.925-19.7407h-2.4644
		c-3.0256,0-5.5737-0.8783-7.7261,1.274c-2.3081,2.3083-1.3528,5.1733-2.8601,7.9594c-1.8291,3.3427-4.6167,5.0959-8.4436,5.0959
		c-7.2422,0-12.0984-0.5566-17.9829-4.7791c-2.3145-1.6681-3.6594-3.5035-6.5308-3.5035c-5.6509,0-8.8376,0.6385-14.4839,0.6385
		c-8.5994,0-12.7432-5.4114-18.7898-11.4629c-5.4114-5.4129-7.7197-9.3894-11.7815-15.9203
		c-9.2334-14.8071-19.5781-19.3403-27.3767-35.0256c-8.5994,8.5996-15.6033,14.3279-27.7065,14.3279
		c-7.7214,0-12.0212-1.5911-19.7407-1.5911c-10.5862,0-16.3147,3.8221-26.9055,3.8221c-5.2505,0-8.4326,0.6338-13.5286-0.317
		c-3.7432-0.6401-4.5378-3.9829-7.6423-6.0515c-6.769-4.6167-9.1563-8.8329-14.968-14.6462
		c-4.8562-4.8564-9.3894-6.1304-12.7385-12.0984c-5.6448-10.1069-7.9531-17.2764-17.188-24.2014
		c-6.2124-4.6167-8.1992-9.79-13.6941-15.2802c-2.3083-2.3083-3.4214-5.0961-6.6853-5.0961c-4.1389,0-6.4473,0.9572-10.5864,0.9572
		c-5.1777,0-8.0366,0.317-13.2161,0.317c-5.9617,0-8.7542-3.42-14.0835-6.0515c-2.7859-1.3513-2.6316-5.73-5.73-5.73
		c-11.0686,0-12.8203,15.2865-23.8782,15.2865c-5.9805,0-9.3169-3.349-13.0615-7.9593c-2.2249-2.7877-3.0259-6.6917-6.6855-6.6917
		c-2.231,0-3.5823,0.4777-5.7344,0.9554c0.0835,0.9572,0.0835,1.5909,0,2.548c-1.2676,0-1.908,0.6403-3.1819,0.6403
		c-4.4558,0-4.1389-7.6488-8.593-7.6488c-0.7964,0-1.1196,0.957-1.908,0.957c-3.9829,0-4.4624-4.2162-7.6443-6.6853
		c-2.8633-2.2312-5.1777-3.1819-7.0022-6.3701c-2.7922,5.6511-7.488,8.5996-13.7776,8.5996h-8.7556
		c-3.9783,0-5.4131,3.1819-8.9951,4.7727c-6.2014,2.7861-11.6189,1.5957-16.2356,6.6917
		c-5.9678-3.4263-8.4387-6.925-13.6958-11.4644c-8.3535-7.2483-13.366-12.259-17.1926-22.6057
		c-4.2932-11.5464-0.394-19.9788-5.7297-31.2053c-1.752-3.8204-6.0518-3.4199-8.2764-7.0087
		c-4.8613-7.8805-10.1953-11.0624-18.7837-14.6448c6.2075-6.8414,10.6682-9.79,14.9631-18.4669
		c-4.2949-1.4299-9.2349-2.4644-9.2349-7.0038c0-2.392,2.5481-3.3427,2.5481-5.7346c0-3.7384-5.2502-3.0258-8.9165-3.8157
		c-1.8892-0.4185-3.5435-0.6774-5.1082-0.8801l-44.9116,11.5826L469.4262,247.8498z"/>
	<polygon points="-220.866,276.8274 -162.9109,247.8498 -220.866,276.8274 	"/>
	<path d="M-162.9109,247.8498l-1201.9523-600.9761c-3.7874,3.2544-6.2076,7.5026-6.2076,13.0878v9.4714h-2.6205
		c-1.1132,0-1.5184-0.9554-2.6316-0.9554c-3.4199,0-4.6167,3.0258-7.0023,5.4176c-2.4645,2.4629-6.0515,3.1819-6.0515,6.6854
		c0,3.1819,1.9126,5.8844,5.0945,6.3636c-0.317,4.2998-1.7471,6.6082-4.139,10.1906c-2.5464-3.8993-2.9421-9.2334-7.6425-9.2334
		c-5.2505,0-7.6423,3.1819-12.7368,4.4542c-2.5433,2.865-2.8602,5.8907-3.4988,9.8737l-2.5481,0.6339
		c-2.8649-1.4286-4.4558-2.0687-7.6423-2.5465c-1.1132,4.4606-3.8158,6.8462-3.8158,11.463c0,9.0789,8.2762,12.5776,8.2762,21.6549
		c0,4.7775-0.957,10.8243-5.7299,10.8243c-6.0515,0-8.5979-5.2506-14.651-5.73c0-1.1179,1.274-1.4348,1.274-2.5464
		c0-1.2739-1.5909-1.4348-1.908-2.5479c-5.8906,0.9507-9.3942,1.9077-15.2849,1.9077c-7.0039,0-10.3466-5.0945-17.3489-5.0945
		h-3.6659c0,9.7112-0.1608,18.1499-8.2762,23.5613c0.6338,2.548,1.2723,4.4558,1.2723,7.0039c0,6.6917-5.4114,10.829-12.0983,12.103
		c0,4.4558,0.6354,6.8479,0.6354,11.3037c0,7.0022-5.0959,13.5332-12.0983,13.5332c-5.8907,0-10.8243-4.9399-10.8243-10.8245
		c0-2.5479,0.7947-3.9828,1.2677-6.3699c-4.4496-0.6387-6.9976-2.5465-11.4581-2.5465c-16.7151,0-27.8625,11.7799-33.1132,27.7001
		c4.7728,2.7861,9.0773,1.0344,13.3723,4.4607c4.4543,3.4988,4.7728,8.1943,4.7728,13.9226v8.4434
		c0,15.3639-5.0961,23.719-5.0961,39.0828c0,12.5759,0.6403,19.5847,0.9572,32.1608c-3.5051,21.0936-5.886,33.1904-16.5542,51.58
		c-1.3513,2.7876-2.6252,5.4128-5.7346,5.4128c-4.3771,0-6.124-3.822-10.5011-3.822c-7.0087,0-11.1476,2.8713-16.2437,7.6426
		c-2.6252,2.4707-4.4542,3.822-7.0022,6.37c-1.4348,1.4349-3.822,1.7517-3.822,3.8204c0,1.7534,0.9523,2.6252,0.9523,4.3787v5.8907
		c0,4.0602,4.1437,5.651,4.1437,9.7111c0,2.0688-0.3169,3.1819-0.3169,5.2506c0,5.0959,6.1288,5.4966,8.2764,10.1133
		c3.7384,8.0365,2.7876,14.484,8.5947,21.3317c3.1094,3.7432,7.0087,3.4199,11.4692,5.4114
		c10.6635,4.8563,16.6315,7.644,27.3785,12.1046c13.2162,5.4901,21.3364,6.608,35.0194,11.1412
		c14.4902,4.7727,21.811,11.7814,36.9398,11.7814c13.1327,0,20.2974-5.0959,33.4301-5.0959c5.3341,0,7.2483,4.7792,12.4153,6.0531
		c3.5886,0.8719,5.5737,1.8291,9.2334,2.2248c4.0616,0.4005,7.327-0.9523,10.1904,1.9126c3.3442,3.3427,3.2606,6.7642,3.822,11.4644
		c0.6339,5.2505,5.4177,6.3638,7.6425,11.1412c1.3513,2.9484,1.1968,5.968,4.1389,7.3255
		c3.7432,1.7518,6.8462,0.8735,10.1906,3.1818c4.9336,3.4263,5.8906,7.6425,9.8719,12.0984
		c3.3379,0.2396,5.2521,0.6403,8.5948,0.6403c10.0281,0,15.124-4.6956,24.1967-8.9164
		c14.8844-7.0039,23.0061-11.8602,38.2075-18.1499c16.715-6.9266,27.5393-7.644,43.9421-15.2802
		c7.2372-3.3427,11.3036-5.7346,19.1022-7.6425l24.8352,3.1802c0,7.2483-0.238,17.1943,7.0087,17.1943l22.1216-2.8649
		c7.1647,0,8.6783,7.3255,15.1304,10.5073c3.0195-6.0515,8.5933-7.9594,15.3638-7.9594h8.4324c7.0087,0,11.381-2.865,16.9531-7.0038
		c5.1796-2.0687,8.2826-3.5035,13.7792-3.5035c5.1732,0,8.0366-0.317,13.21-0.317c6.6869,0,9.7899,5.3342,13.1327,11.1412
		c6.5308-4.8563,12.1818-5.0959,20.3762-5.0959c20.7798,0,33.4347,6.0532,49.9937,18.4684
		c10.6683,7.9641,16.3981,14.2506,21.9656,26.4262c2.3083,5.0944,5.0961,8.043,5.0961,13.694c0,4.9399,5.0172,6.0532,7.0086,10.5074
		c6.5245,14.4066,12.7321,22.1327,12.7321,37.8922c-1.274,6.2849-5.2568,8.754-7.6378,14.6448
		c4.3786,2.548,5.2505,5.9742,7.6378,10.5073c1.8354,3.5887,4.694,5.4177,4.694,9.473v24.3575c0,2.8712-1.829,4.3787-1.829,7.2483
		c0,3.576,5.0945,2.4645,8.5995,3.1818c8.1991,1.6746,13.6893,1.6746,21.0085,5.7283c3.6659,1.9914,6.6144,3.1046,8.2826,7.0087
		c1.5121,3.4988,0.6339,6.4473,3.1819,9.2334c3.4263,3.6612,7.726,0.8735,12.7369,1.5909
		c6.7705,4.4559,12.2608,3.5824,19.7424,6.687c7.6425,3.1866,10.1053,12.1819,18.4668,11.1412c0,2.392-2.2247,3.349-2.2247,5.7346
		c0,3.6596,2.9422,5.0172,5.4067,7.6425c4.6214,4.8564,7.8033,7.3209,11.7861,12.7385c2.3083,3.1818,5.4066,4.7727,5.4066,8.7556
		c0,3.6597-0.79,8.4372-4.4496,8.4372c-0.5629,0-0.8009,0.5566-1.2803,0.6339c3.349,13.6119,15.7642,15.4426,25.1537,25.7939
		c1.5956,1.5909,2.8649,2.786,2.8649,5.0109v11.9423c0,9.7127,6.8525,13.6119,10.5122,22.5285
		c3.505,8.516-0.1609,16.8711,7.0038,22.6104l2.5464-0.6449c11.064,5.5012,17.5114,10.1905,29.7704,10.1905
		c5.3342,0,8.2764-0.6339,13.6119-0.6339h15.5182v-6.2912c0-5.2505,6.8478-5.0125,12.0984-5.8072
		c6.1351,0,9.473-1.9079,15.6082-1.9079c2.9421,0,3.9764,2.7026,6.0468,4.7728c4.2209,4.2209,6.8461,6.6854,12.1031,9.5551
		l9.8672-9.8783c10.8243,7.8049,16.8774,12.8221,28.9758,18.4731c8.5995,3.9828,14.8844,3.5035,23.2442,7.9594
		c9.005,4.8652,13.8882,9.6261,20.0684,16.2484l405.9256-202.9632L-162.9109,247.8498z"/>
	<path fill="#FED100" d="M839.118,740.8762v0.0002c-4.0554,0.6339-10.1857-1.5137-10.1857,2.548
		c0,0.127,0.0104,0.2436,0.0219,0.3592l17.9996,8.9998C846.2084,747.7153,844.2881,743.4375,839.118,740.8762z"/>
	<path fill="#FED100" d="M820.0126,725.59c0-5.4902-8.1991-3.9828-13.6891-3.8205c-4.6167,0.1609-7.1649,0.9556-11.7814,1.2725
		c-2.0304,0.1568-4.0273,0.0804-5.5897,0.7408l25.1121,12.556C815.5601,732.2036,820.0126,730.4053,820.0126,725.59z"/>
	<path fill="#FED100" d="M1233.5862-134.2303l30.0188-15.0093c-9.9194-4.4207-16.2026-8.5051-25.2151-16.3911
		c-3.2654-2.786-3.978-5.8906-7.3206-8.5996c-10.5847-8.5931-19.897-8.5159-30.248-17.5095
		c-5.3281-4.6167-7.4028-8.5996-13.054-12.7385c-6.2864-4.6167-10.6635-6.2075-16.2373-11.7814
		c-3.2655-3.2592-3.4214-6.6854-7.0085-9.5503c-3.9766,4.4606-6.3638,9.2334-12.4153,9.2334c-4.694,0-6.9204-2.4645-10.8242-5.0944
		c-2.7087-1.8306-5.3342-1.1968-7.6423-3.4988c-3.5825-3.5886-1.9915-7.8049-3.1881-12.7385
		c-1.6683-6.6854-3.8158-10.3513-3.8158-17.1927c0-7.0875,3.3379-11.4645,8.9117-15.925c2.392-1.9078,5.7345-2.6254,5.7345-5.7299
		c0-2.2311-1.2739-3.5035-1.2739-5.7283c0-2.4708,0.957-3.9056,0.957-6.3701c0-4.9336-4.7002-6.3684-8.5994-9.2334
		c-8.1992-6.1304-15.5199-4.7776-25.7925-6.0515c-15.1967-1.8306-23.6399-4.1389-38.843-4.1389
		c-15.124,0-24.2012,1.7517-37.8906,8.5947c-7.081,5.2554-4.7729,18.4717-13.6891,18.4717c-4.3771,0-7.4028-0.801-10.8307-3.5037
		c-2.7025-2.1475-3.5807-5.7297-7.0797-5.7297h-6.2864l-6.3748-0.957c-8.9099,0.0787-13.9272,0.3184-22.8391,0.3184
		c-11.8215,0-19.3718-5.8398-28.3647-9.708l-781.116,390.558L-795.7443-384.736c0.0004,0.0707,0.0023,0.1364,0.0023,0.2081
		c0.79,0.8689,1.5847,1.7754,2.4186,2.6979c2.1413,2.4645,5.0897,3.6613,5.0897,7.0038c0,7.7197-5.651,14.6511-13.3723,14.6511
		c-4.6939,0-9.071,0.5566-11.4628-3.5034c-1.3528-2.3085-0.1562-6.3701-2.865-6.3701c-5.7299,0-8.9117,0.9507-14.6464,0.9507
		c-19.1006,0-28.6572-7.9592-47.7641-11.1411c-4.0554,0.0789-6.3638,0.3169-10.4239,0.3169c-4.8563,0-6.0468,6.0531-10.9016,6.0531
		c-6.37,0-12.7432-0.4005-14.9696-6.37c-1.1951-3.3428,0.3232-6.7627-2.5464-8.9102c-3.5776-2.6316-7.5605,0.2333-11.4597-1.9143
		c-3.1866-1.7517-2.3904-7.3254-6.0516-7.3254c-4.1436,0-6.0452,2.548-10.1841,3.1882c0,6.0515-7.0922,7.4028-13.0602,8.5931
		c-3.3442,0.6403-5.1732,2.2311-8.5948,2.2311c-1.9126,0-2.6301-1.7533-4.5379-1.7533c-6.0468,0-9.473-0.1608-15.5198-0.1608
		c-1.5184,0-1.3576,1.9913-2.548,2.8696c-2.3083,1.7471-4.7775,0.0789-7.6424,0.6354c-1.5957,0.3169-2.1475,1.9125-3.8204,1.9125
		c-4.6167,0-6.843-2.5479-11.4645-2.8696v2.8696h-5.0172c-6.6034,0-10.0297-3.1865-16.6315-3.1865
		c-4.7837,0-6.6869,4.4559-11.4645,4.4559c-1.9913,0-3.103-0.6354-5.0944-0.6354c-4.0618,0-6.1257,1.7532-10.1906,2.2247
		c-3.5051,0.4005-6.2076-0.7883-8.9117,1.2804c-1.9961,1.5073-2.548,4.1389-5.0945,4.1389c-6.6082,0-9.3169-6.0531-15.925-6.0531
		c-3.9718,0-4.6167,5.413-8.5948,5.413c-4.8547,0-6.925-5.3295-7.3254-10.1858c-0.8735-0.082-1.2677-0.3217-2.1476-0.3217
		c-1.7517,0-2.7861,0.6401-4.5378,0.6401c-2.2249,0-2.865-2.3872-3.4988-4.4559c-2.548,0.6339-4.1389,0.9508-6.3685,2.2249
		c1.5122,4.5394,4.4543,6.7689,4.4543,11.5417v8.199c-3.9828,0-6.3621,0.6401-10.1904,1.5957
		c2.1538-8.7603,2.1538-13.9336,2.8712-22.9274c-4.6167,0.9572-7.1647,1.274-11.7815,1.274c-5.5737,0-9.8735,0.7947-14.0125-2.865
		c-3.103-2.7861-3.7432-7.3256-7.953-7.3256c-1.9978,0-3.1094,0.9572-5.0961,0.9572c-4.7002,0-6.7689-3.822-11.4629-3.822
		c-2.1538,0-2.6316,2.5479-4.7791,2.5479c-2.1476,0-3.1866-1.4348-4.7776-2.865c-1.2693,1.7518-2.3083,3.822-4.4558,3.822
		c-1.274,0-1.9078-0.6401-3.1866-0.6401c-5.2521,0-7.4816,4.7776-12.7322,4.7776c-1.5908,0-2.3083-0.9556-3.8992-0.9556
		c-0.4794,0-0.7191,0.3218-1.1968,0.3218c1.4348,2.9421,4.7727,3.4988,4.7727,6.7642c0,1.1904-0.2333,1.908-0.3121,3.103
		c-4.4606,0.3169-6.6917,4.7728-6.6917,9.2351c0,3.4199,5.0959,3.6595,5.0959,7.0858v7.4816c0,2.3083-2.7087,2.5464-4.7775,3.5824
		c-3.338,1.6744-4.5348,4.7712-8.278,4.7712c-4.7002,0-6.925-2.4629-10.8243-5.0945c-4.0601-2.7814-7.3254-5.5675-7.3254-10.5074
		c0-6.4473,4.2997-10.1904,9.8735-13.3723c-1.1132-1.5121-1.274-3.8203-3.1819-3.8203c-2.3147,0-3.4263,1.5956-5.7346,1.5956
		c-8.0382,0-11.6979-5.7346-19.7407-5.7346c-3.7385,0-6.7643-0.2396-9.2335,2.548c-1.6744-2.9421-4.5331-3.4988-7.9609-3.4988
		c-4.2162,0-7.0859,1.6682-9.8719,4.7728c-0.6354-1.1968-1.5073-2.2249-2.9437-2.2249h-8.754c-4.3787,0-6.5245-2.548-10.9032-2.548
		c-1.5909,0-2.2358,1.2677-3.8268,1.2677c-2.2247,0-3.8157-0.8735-5.0945-2.5417c-1.9078,1.4301-4.4558,1.9851-4.4558,4.4559
		c0,1.5908,1.2739,2.2247,1.2739,3.8203c0,0.5566-0.5565,0.7963-0.6338,1.274c-2.7877-0.1608-4.2225-1.274-7.0039-1.274
		c-2.3918,0-3.8267,2.3872-3.8267,4.7728c0,1.274,0.6401,1.9142,0.6401,3.1882c0,2.7025-3.4263,2.5464-5.7346,3.8204l3.1865,5.0959
		c-4.8563,7.3193-13.7728,1.9078-21.9718,5.0945c-3.6252,1.4043-6.9185,3.1924-9.5551,5.4579l1201.9523,600.9761l-57.9551,28.9777
		l-405.9256,202.9632c1.3027,1.3959,2.6592,2.8693,4.1283,4.4495c7.4817,8.0383,12.7322,14.4066,12.7322,25.4707
		c0,18.0711-13.6893,26.1864-13.6893,44.2544c0,10.6682,4.7791,16.242,4.7791,26.9103c0,11.7026-4.7791,18.0663-4.7791,29.7704
		c0,4.6167,5.651,5.0172,9.8735,6.6917c10.3465,4.1373,18.7065,2.4628,26.7446,10.5074
		c6.6854,11.5354,17.0366,12.1756,27.7001,20.0513c2.6316,1.9142,5.4902,0.8799,7.6425,3.1882
		c1.6745,1.829,0.3958,3.9828,1.2676,6.3685c1.52,4.0554,2.8712,6.4472,2.8712,10.8243c0,3.6597-4.1389,4.9336-4.1389,8.5996
		c0,5.0897,2.4645,7.7985,5.0959,12.0984c4.3771,7.0811,6.3622,12.4988,13.6877,16.5541
		c5.8906,3.2639,7.2483,9.6385,14.0062,10.1889c-0.79-2.4628-1.9016-3.8205-1.9016-6.4457v-2.4645
		c4.0554,0.6338,6.124,1.9078,10.1841,1.9078v2.313c0,1.7471-1.274,2.6205-1.274,4.3787c0,1.6682,1.9078,2.1413,3.505,2.5417
		c-0.2396,0.957-0.957,1.5137-0.957,2.548c0,1.5909,1.6745,2.0687,2.2311,3.5035c1.5597,3.6844,3.2295,7.4611,6.3798,8.9152
		l653.9614-326.9799L738.1888,698.401c4.2014-3.2844,9.3633-4.7321,15.2817-7.2009c3.0212,0.4777,4.6167,1.9141,7.6379,1.9141
		c2.3081,0,3.1028-1.9913,5.0945-3.1818c5.5737-3.4262,8.7556-5.5737,13.3723-10.1905c3.2655-3.2607,5.2505-6.687,9.8672-6.687
		c3.1094,0,3.5823,3.4988,4.7791,6.37c2.1523,5.2505,3.7432,8.2764,4.4606,14.011c0.7947,0.1561,1.1132,0.6338,1.9078,0.6338
		c2.6254,0,2.865-3.1866,5.0897-4.4543c6.3748-3.8283,10.7518-5.7362,18.1563-5.7362c8.1154,0,8.9938,9.235,13.0538,16.2435
		c4.1389,7.0795,13.3723,4.3771,17.8282,11.146c4.2209,6.3638,6.5292,10.9031,13.3723,14.3232
		c6.6853,3.338,15.285,4.295,15.285,11.7814c0,10.0297-6.2078,14.5674-11.7813,22.9226c-0.9725,1.4881-2.224,2.3377-3.5405,3.0374
		l39.8142,19.9071c5.0658,0.1279,8.6841,2.3505,11.802,5.9011l26.4163,13.2081c8.712-5.7861,14.48-11.4822,25.5649-11.4822h5.8906
		c7.4027,0,11.3857,5.0945,14.7236,11.775c4.2209,4.7002,6.925,7.0859,12.4202,10.5121c3.5051,2.1475,5.1731,4.7728,9.2334,4.7728
		c10.7534,0,15.5246-6.4457,24.5136-12.4152c3.9827-2.6299,5.8132-6.0516,10.5911-6.0516h6.8477
		c14.5676,0,18.4668-13.6105,29.3699-23.2443c3.6597-3.1818,3.0258-9.8688,7.9595-9.8688c1.2739,0,1.9128,0.9571,3.1868,0.9571
		c4.6956,0,7.6423-4.6167,7.6423-9.3107v-8.2054c4.9353,0,5.0125-6.2076,6.6807-10.8243c0.801-2.3084,3.7432-1.9914,4.7839-4.1389
		c1.3512-2.7026,0.8737-4.8548,1.9031-7.6425c1.7566-4.7775,7.3303-5.7282,7.3303-10.8243c0-1.3575-1.2787-1.8353-1.2787-3.1866
		c0-4.0554,6.0516-3.5776,7.6425-7.3208c1.5955-3.7431,0.1606-6.6854,2.231-10.1905c4.9272-8.2764,15.285-9.5551,15.285-19.1069
		c0-1.2677-1.2787-2.2247-1.2787-3.4988c-3.7449,4.6955-8.1219,5.7299-14.0063,5.7299c-4.1389,0-7.9609-2.865-7.9609-7.0038
		c0-4.2209,3.1819-5.8955,5.0897-9.5551c2.7924-5.2505,5.0959-10.8196,11.1476-10.8196c2.6316,0,2.786,3.1818,4.1389,5.4067
		c2.1523,3.5051,3.3473,5.9742,6.6853,8.2826c3.1045,2.1475,6.0515,0.3122,9.8735,0.9571c-0.3169-1.5137-0.957-2.3083-0.957-3.9056
		v-6.5246c0-4.6939-1.5911-7.1631-1.5911-11.8635c0-5.2521,3.5762-7.4816,7.0088-11.4644c3.7385-4.295,4.4495-8.1943,4.4495-13.8501
		c0-5.7236-2.9423-8.5948-5.0897-13.8453c0-2.8975,0.6857-5.3403,1.8439-7.4826L469.4262,247.8498L1233.5862-134.2303z"/>
	<path fill="#FED100" d="M1216.4253,632.9396c3.2639,0.79,5.0173,1.9079,7.6426,3.8157c2.2932-3.0605,4.5574-5.8137,7.0261-8.0723
		l-9.554-4.777C1219.3618,626.3851,1217.6084,629.3695,1216.4253,632.9396z"/>
</g>
</svg>
